<svg xmlns="http://www.w3.org/2000/svg" viewBox="0 0 839.73 598.67"><defs><style>.cls-1{fill:#211915;}</style></defs><title>animacion</title><g id="Capa_2" data-name="Capa 2"><g id="Capa_2-2" data-name="Capa 2"><path class="cls-1" d="M209,76.83q-11.14-24.06-20.09-49C187.05,22.52,180.2-6,169.82,1.14c-4.7,3.22-4.58,12-5.42,16.85q-2.34,13.55-4.53,27.13c-2.81,17.23-6,34.47-8.12,51.8a159.56,159.56,0,0,0,3.61,58.32c.58,2.34,4.2,1.35,3.62-1A157,157,0,0,1,155.62,96c2.62-20.23,6.28-40.38,9.61-60.51q1.22-7.26,2.45-14.53c.75-4.37,1.07-9.16,2.44-13.38,2.82-8.66,8.84,3.61,10.08,6.7,1.68,4.18,3,8.52,4.48,12.77q9.28,26.35,21.1,51.72c1,2.18,4.24.28,3.23-1.9Z"/><path class="cls-1" d="M193,34.35q2.37-7.73,4.83-15.42c.6-1.85,1.08-5.85,2.46-7.24,2.85-2.89,3.1,1.62,3.26,3.86.61,8.72,3,17.16,6.05,25.32,6.44,17.24,15.8,33.69,17.78,52.27.25,2.37,4,2.4,3.75,0C228.62,69.78,215,50.08,209.3,27.63c-1.36-5.37-1.53-10.7-2.29-16.13-.4-2.93-2-6.15-5.45-5.75-3.66.41-4.94,4.75-5.9,7.67-2.2,6.61-4.25,13.27-6.29,19.93-.72,2.31,2.9,3.3,3.61,1Z"/><path class="cls-1" d="M227,89.76q4.46,37.26,5.24,74.82c.05,2.41,3.8,2.42,3.75,0q-.78-37.52-5.24-74.82c-.29-2.37-4-2.4-3.75,0Z"/><path class="cls-1" d="M156.37,154.38c-1.75,5-10,3.06-13.82,3.22a51.48,51.48,0,0,0-8.91,1.14,41.36,41.36,0,0,0-16.72,7.73,67.56,67.56,0,0,0-22,30.74c-.77,2.3,2.85,3.28,3.62,1,4.38-13.1,14.93-27.21,27.71-33.11,7.11-3.28,14.49-3.77,22.19-3.68,5,.06,9.67-.84,11.51-6,.81-2.28-2.82-3.27-3.62-1Z"/><path class="cls-1" d="M95.64,195.17c-2.88,3.44-7.15,4.19-10.77,6.54a14.75,14.75,0,0,0-6.13,8.56c-3,10.2-2.56,22.21-1.8,32.69.17,2.4,3.92,2.42,3.75,0-.71-9.86-1-20.53,1.28-30.22,1.16-5,3.89-7.53,8.36-9.63,3-1.42,5.79-2.69,8-5.29,1.54-1.84-1.1-4.5-2.65-2.65Z"/><path class="cls-1" d="M82.21,218.21c3.85-3.16,5.88-8.24,7-13a1.89,1.89,0,0,0-2.3-2.31c-4.07,1.17-2.14,5.93-5.43,7.75-2.11,1.17-.22,4.41,1.9,3.24a7.73,7.73,0,0,0,3.11-3c.51-.92.67-4.14,1.41-4.35l-2.3-2.31c-1,4.16-2.65,8.54-6,11.32-1.87,1.53.79,4.17,2.65,2.65Z"/><path class="cls-1" d="M126.84,189.85c-11.31-1.34-10.15,14.25-10.32,21.3-.15,6.06-3.27,21.62,6.75,21.81,9.32.17,11.59-13.08,12.64-19.89.67-4.35,1.34-9.24,0-13.53-1.48-4.58-5.36-7.4-9.25-9.87-2-1.3-3.92,2-1.89,3.24,6.56,4.17,8.63,8.64,7.92,16.26-.49,5.18-1.38,12.43-4.46,16.81-1.53,2.19-5.61,6.3-8,.19a11.3,11.3,0,0,1-.18-3.59c0-3.17.15-6.36.23-9.53.12-5.11-1.65-20.43,6.62-19.45,2.4.28,2.37-3.47,0-3.75Z"/><path class="cls-1" d="M118.85,209.8a33.28,33.28,0,0,1-.65,9.65l2.76-1.12-.33-.22.86,1.12c-.26-.7,1-2.64,1.15-3.43a13.83,13.83,0,0,0,.33-3.68c-.11-2-.72-4.33-3-4.8s-3.36,3.13-1,3.62c.46.09.24,2.64.2,2.95a14.33,14.33,0,0,1-1.12,3.58c-.61,1.61-.51,3.09,1,4.1a1.89,1.89,0,0,0,2.76-1.13,37.27,37.27,0,0,0,.78-10.64c-.18-2.39-3.93-2.41-3.75,0Z"/><path class="cls-1" d="M127,256c-2.3-1.5-4-4.18-6-6.08s-4.19-3.85-6.28-5.77c-3.14-2.88-6.49-6.86-10.7-8.18a8.09,8.09,0,0,0-8.11,1.61c-2.93,2.95-1.79,7.33-2.1,11.05-.19,2.4,3.56,2.39,3.75,0,.11-1.34-.18-2.88,0-4.18.54-3.09,2.82-6.07,6.32-4.48,3.11,1.42,5.67,4.55,8.15,6.83s5,4.46,7.39,6.83c1.92,1.94,3.38,4.11,5.68,5.61,2,1.32,3.91-1.93,1.89-3.24Z"/><path class="cls-1" d="M116.8,257.54c-7.51-4-15-8-22.54-11.91-5.13-2.63-10.09-4-15.6-1.54a15.25,15.25,0,0,0-8.89,10.84c-1.47,7,1.4,14.53-2.22,21.06-3,5.36-8.87,9.34-8.42,16.14.36,5.33,4.79,8.55,8.9,11.23,5.74,3.75,11.91,8.78,18.84,9.95,5.45.92,12.72,1.13,17.63-1.82,5.86-3.53,8.19-10.7,11.21-16.42A107.55,107.55,0,0,1,131.3,273c1.62-1.78-1-4.44-2.65-2.65a113.13,113.13,0,0,0-12.77,16.87c-3.31,5.41-5.5,11.56-9.07,16.78-5.13,7.51-17.12,7.71-24.69,3.79-3.12-1.62-6-3.69-9-5.57s-6.84-3.81-8.89-6.82c-5-7.28,5.27-13.6,7.73-19.89s.21-12.71,1.35-19a11.64,11.64,0,0,1,7.78-9.32c4.11-1.42,7.58-.1,11.26,1.74,7.59,3.79,15,7.94,22.53,11.91,2.14,1.12,4-2.11,1.9-3.24Z"/><path class="cls-1" d="M94.19,291.57a38.85,38.85,0,0,0,24.88-7.49c1.94-1.41.07-4.66-1.89-3.24a35.57,35.57,0,0,1-23,7c-2.41-.1-2.41,3.65,0,3.75Z"/><path class="cls-1" d="M138.1,251c-3.34.2-9.06-.22-11.49,2.65s-1.78,8.64-1.68,12c.25,7.78,6.16,12.91,14,12.38,7.58-.51,13.37-6.71,14.24-14.13,1.34-11.38-10.07-12-18.45-14-2.35-.54-3.36,3.07-1,3.62,4.58,1.06,13.27,1.48,15.62,6.34,2.56,5.28-3.64,12.61-8.16,14-5.84,1.74-11.85-1.25-12.51-7.48a22.88,22.88,0,0,1,.16-7.25c1.2-4.48,5.28-4.09,9.23-4.33,2.4-.15,2.41-3.9,0-3.75Z"/><path class="cls-1" d="M66.81,433.61c-5.42-8.62-11.49-18.08-14.25-27.95-3.12-11.16-1.65-24.36-.09-35.68A207.76,207.76,0,0,1,60,337.22a116.85,116.85,0,0,1,5.51-15.56c2.39-5.06,6.52-8.86,9.67-13.41,1.38-2-1.87-3.86-3.23-1.89-3.36,4.83-7.56,8.76-10,14.17a127.62,127.62,0,0,0-5.53,15.7,210,210,0,0,0-7.71,34.43c-1.49,11.31-2.73,24,.1,35.21,2.65,10.51,9.14,20.55,14.85,29.63,1.28,2,4.53.16,3.24-1.89Z"/><path class="cls-1" d="M65.09,315.77a142.83,142.83,0,0,0,4.08,15.62c.54,1.68,3.18,1.89,3.61,0q2.91-12.54,7-24.73c.77-2.3-2.85-3.28-3.62-1q-4.08,12.21-7,24.73h3.61a142.19,142.19,0,0,1-4.07-15.62c-.48-2.36-4.09-1.36-3.62,1Z"/><path class="cls-1" d="M90,313.52A125.09,125.09,0,0,1,94.71,340a1.89,1.89,0,0,0,3.69.5L106.23,319l-3.43.45c9,12.94,12.14,28.35,15.09,43.54.31,1.61,2.67,1.79,3.43.45a29.93,29.93,0,0,0,3.6-19.58c-.34-2.38-4-1.37-3.62,1a25.82,25.82,0,0,1-3.22,16.7l3.42.45c-3-15.51-6.32-31.24-15.46-44.45a1.91,1.91,0,0,0-3.43.45l-7.83,21.47,3.68.49a130,130,0,0,0-4.82-27.45c-.67-2.31-4.29-1.33-3.62,1Z"/><path class="cls-1" d="M117.38,287.14c-1.23,16.39-3.57,35.91,2.88,51.51A42.82,42.82,0,0,0,147.31,363c2.31.71,3.3-2.9,1-3.62a38.87,38.87,0,0,1-26-26.36c-4.05-14.41-2.24-31.11-1.13-45.85.18-2.41-3.57-2.39-3.75,0Z"/><path class="cls-1" d="M142.34,360.62c5.62,3.29,11.1,6,17.66,6.62,7.24.72,14.74.52,22,.44,14.44-.16,25.71-5.87,37.66-13.48,2-1.29.16-4.54-1.89-3.24-11.36,7.23-22,12.82-35.77,13-5.85.06-11.73,0-17.58-.19-7.65-.23-13.67-2.53-20.2-6.36-2.08-1.22-4,2-1.89,3.24Z"/><path class="cls-1" d="M139.08,358.15c.23,12.1.48,24.49-3.1,36.19a43.17,43.17,0,0,1-8.29,15.81c-3.43,3.91-8.66,5.74-13.06,8.35-9.93,5.89-21.1,5.15-32,7.6a65,65,0,0,0-14.18,5c-5.21,2.53-9.93,5.87-15.57,7.45-2.32.65-1.34,4.27,1,3.62,5.4-1.51,10-4.5,14.94-7.06A61.74,61.74,0,0,1,87,429.06c6-1,12.06-1.22,18-2.58,6.11-1.41,10.73-4.61,16.2-7.45,4.35-2.25,7.69-4.12,10.72-8.1a48.8,48.8,0,0,0,7.22-14c4.19-12.47,4-25.81,3.75-38.79,0-2.41-3.79-2.42-3.75,0Z"/><path class="cls-1" d="M60,436.28c-5.67,1-10.5,4-15.31,7-4.63,2.9-9.23,6.09-12.82,10.26a34.2,34.2,0,0,0-7.75,27.29c1.59,10.2,8,18.8,15.5,25.55a83.27,83.27,0,0,0,13,9.69C57.47,519,64,520,68.1,523.88c1.75,1.66,4.4-1,2.65-2.66-2.77-2.63-6-3.75-9.47-5.11a56.3,56.3,0,0,1-12.86-7.38c-8-5.92-15.78-13.4-19.21-23a30.34,30.34,0,0,1,5.3-29.55c6-7.09,17.22-14.69,26.47-16.3,2.37-.41,1.36-4-1-3.61Z"/><path class="cls-1" d="M148.53,252.37c.59-8.81,9.34-14.38,15.7-19.31,7.22-5.61,14.67-11.05,22.94-15,8.5-4.09,17.72-6.28,26.66-9.17A233.35,233.35,0,0,0,237,199.59c17.43-7.76,34.67-13.55,53.73-15.64,18.2-2,36.56-1.58,54.83-1.14,2.42.06,2.42-3.69,0-3.75-30.36-.73-61.71-1.38-90.7,9-14.55,5.23-28.16,12.74-42.92,17.43-14.29,4.54-27.72,8.64-40.19,17.28A199.81,199.81,0,0,0,154,236.49c-4.88,4.28-8.76,9.22-9.2,15.88-.17,2.41,3.58,2.4,3.75,0Z"/><path class="cls-1" d="M150.11,269.32c16.57.64,33.34.61,49.84,2.26s31.13,9.56,47.21,13.19c2.35.54,3.36-3.08,1-3.61-15.8-3.57-30.12-11.25-46.38-13.13-17.06-2-34.52-1.79-51.67-2.46-2.42-.1-2.41,3.65,0,3.75Z"/><path class="cls-1" d="M219.3,278.55c13.13,8.74,26.33,17.48,38.3,27.8,10.74,9.26,19.39,20.84,30.92,29.18,21.48,15.55,49.08,19.91,75,18.94,2.4-.09,2.42-3.84,0-3.75-26.64,1-55.26-3.69-76.48-21-11-9-19.82-20.4-30.9-29.45s-23.05-17-35-25c-2-1.34-3.9,1.9-1.9,3.23Z"/><path class="cls-1" d="M166,270.27a28,28,0,0,1,16.06,12.26c1.27,2.05,4.52.16,3.24-1.9a32,32,0,0,0-18.3-14c-2.32-.69-3.31,2.93-1,3.62Z"/><path class="cls-1" d="M233.91,165.35c5.31,3.42,10.83,6.64,16,10.32,4.53,3.25,6.78,8.52,11.44,11.61,2,1.34,3.9-1.91,1.89-3.24-4.55-3-6.91-8.38-11.44-11.61-5.15-3.67-10.65-6.9-16-10.32-2-1.31-3.92,1.94-1.89,3.24Z"/><path class="cls-1" d="M338.62,181.83c12.23,2.63,24.84,4.62,36.85,8.13,6.7,2,11.39,5.43,16.61,9.91,4.26,3.66,9.05,6.62,13.37,10.21,8.23,6.85,15.38,15.24,19.69,25.11a62.21,62.21,0,0,1,4.48,18.63c.69,6.59,1.62,13.54.08,20.06-.55,2.34,3.06,3.35,3.62,1,1.49-6.34.81-12.75.23-19.18s-1.48-12.78-3.7-18.84c-3.92-10.63-11-19.84-19.36-27.36-4.55-4.08-9.71-7.3-14.43-11.14s-8.89-8-14.77-10.36-12.53-3.51-18.85-4.87l-22.83-4.91c-2.35-.51-3.36,3.11-1,3.62Z"/><path class="cls-1" d="M359.83,354.54c10.11.61,19.28.32,28-5.45,8.9-5.92,18.3-12,26-19.45,15-14.39,20.3-37.35,20.43-57.47,0-2.41-3.73-2.41-3.75,0-.12,19.13-5.09,41.12-19.34,54.81-6.92,6.66-15.21,11.93-23.09,17.37-4.21,2.91-8.37,5.41-13.51,6.28-4.86.81-9.85.46-14.74.16-2.41-.14-2.4,3.61,0,3.75Z"/><path class="cls-1" d="M339.26,353.68c2,7.32,3.69,14.88,6.48,21.95,2.44,6.17,6.06,11.8,8.75,17.87,4.87,11.05,8.69,22.61,17.26,31.47,1.68,1.74,4.33-.92,2.65-2.65-8.31-8.59-12-20-16.68-30.71-2.79-6.35-6.64-12.22-9-18.74s-4-13.47-5.82-20.18c-.64-2.33-4.26-1.34-3.61,1Z"/><path class="cls-1" d="M360.78,402.6c25.05-1.92,50,3,74.7,6.61,10.07,1.48,23.33,1.44,32,7.44,9.41,6.52,8.94,19.31,5.91,29.06-.72,2.31,2.9,3.3,3.62,1,2.74-8.84,3.49-19.41-1.84-27.49-6.35-9.62-18.67-10.67-29.06-12.21-28.06-4.14-56.82-10.34-85.31-8.16-2.39.18-2.41,3.93,0,3.75Z"/><path class="cls-1" d="M382.21,475.53a128.6,128.6,0,0,0,9.27,21c3.85,6.7,9,12.46,13,19.06,9.22,15.24,4.67,33.21,5.91,50,.17,2.39,3.92,2.41,3.75,0-1.16-15.73,2.8-32.53-4-47.41-3.34-7.27-8.86-13.19-13.18-19.86-4.8-7.39-8.18-15.52-11.15-23.79-.8-2.26-4.43-1.29-3.61,1Z"/><path class="cls-1" d="M387.08,485.47c20.48,1.29,40.69,1.81,59.76-6.89,8-3.65,16.13-7.39,20.9-15.1a106.76,106.76,0,0,0,11.4-27c.66-2.32-3-3.31-3.62-1A103.63,103.63,0,0,1,465,460.84c-4.9,8.07-13.88,11.94-22.3,15.5-17.71,7.49-36.81,6.56-55.59,5.38-2.41-.16-2.41,3.59,0,3.75Z"/><path class="cls-1" d="M343.13,561.62a45.39,45.39,0,0,1,21.07,1.94c6.28,2.19,11.41,7.63,17.86,9,6.21,1.28,13.89.72,20.17.15,5.14-.46,9.81-2.34,12.17-7.17,1.05-2.16-2.18-4.06-3.24-1.89-3.33,6.83-12.61,5.47-19,5.53-3.22,0-6.81.44-10-.39S376.7,565.65,374,564a47.7,47.7,0,0,0-30.88-6.17c-2.36.31-2.39,4.07,0,3.75Z"/><path class="cls-1" d="M49.68,514.14c6.34.29,11.4,4,16.5,7.36a77.46,77.46,0,0,0,15.78,8c13.53,5.18,27.13,10.16,40.7,15.24,2.27.85,3.24-2.78,1-3.62-14.14-5.29-28.4-10.35-42.45-15.9C70.56,521,61.5,510.92,49.68,510.39c-2.42-.11-2.41,3.64,0,3.75Z"/><path class="cls-1" d="M105.29,538.34c10.82,1.75,20.66,6.37,30.81,10.26,10.32,4,20.6,5.77,31.58,6.6,11.8.89,23,3,34.6,5.2,12,2.31,24.19.83,36.2,2.77,2.36.39,3.38-3.23,1-3.61-11.72-1.9-23.6-.44-35.31-2.6-11-2-21.65-4.41-32.84-5.25-11.59-.86-22.51-2.28-33.43-6.42-10.43-3.95-20.51-8.77-31.61-10.56-2.36-.38-3.38,3.23-1,3.61Z"/><path class="cls-1" d="M235.27,563c31,3.89,62.42,2.65,93.48.76,27.81-1.69,44.14-22.89,54.87-46.6,1-2.18-2.25-4.09-3.24-1.89-5.33,11.78-11.69,23.45-21.42,32.21a49.47,49.47,0,0,1-16.57,10.1c-6.82,2.39-14,2.46-21.18,2.81-28.65,1.4-57.4,2.45-85.94-1.14-2.39-.3-2.37,3.45,0,3.75Z"/><path class="cls-1" d="M390.21,573.66a12.32,12.32,0,0,1,.24,1.21q0,.2,0,0l0,.28c0,.22,0,.44,0,.66a1.88,1.88,0,0,0,3.75,0,16.4,16.4,0,0,0-.44-3.12,1.88,1.88,0,1,0-3.62,1Z"/><path class="cls-1" d="M384.4,572.59v2.93a1.88,1.88,0,1,0,3.75,0v-2.93a1.88,1.88,0,1,0-3.75,0Z"/><path class="cls-1" d="M405.1,572.63c.85,1.74,1.82,3.41,2.77,5.09,1.18,2.11,4.42.22,3.24-1.89-.95-1.68-1.92-3.35-2.77-5.09-1.07-2.17-4.3-.27-3.24,1.89Z"/><path class="cls-1" d="M1.36,455.13c3.67.65,6.68,4.94,9.72,7.07,3.63,2.55,7.54,4.69,10,8.49,1.32,2,4.57.13,3.24-1.89-2.66-4-6.48-6.49-10.4-9.16-3.75-2.56-7-7.3-11.61-8.12-2.36-.42-3.37,3.19-1,3.61Z"/><path class="cls-1" d="M6.87,451.62c3.25,1.68,5.6,4.92,8,7.64a85.32,85.32,0,0,1,7.24,9.39c1.32,2,4.56.13,3.24-1.89a93.89,93.89,0,0,0-7.83-10.15c-2.6-3-5.13-6.37-8.71-8.23-2.14-1.1-4,2.13-1.9,3.24Z"/><path class="cls-1" d="M5.45,468.93q9,4.62,17.58,10c1.92,1.21,3.54-1.38,2.27-2.94-5.62-6.9-10.66-14.16-15.61-21.55l-2.95,2.28a228.65,228.65,0,0,1,15.31,18c1.06,1.39,3.47,1.07,3.49-.95,0-2.89,1.05-7.73-.54-10.3-1.69-2.73-6.5-4.9-9.06-6.74-2-1.41-3.84,1.84-1.89,3.24s5,2.88,6.58,4.72c2,2.32,1.19,6.29,1.16,9.08l3.5-.95A241.19,241.19,0,0,0,9.39,454c-1.43-1.52-4.14.49-2.94,2.28,5.13,7.64,10.38,15.15,16.2,22.3l2.27-2.94q-8.58-5.36-17.57-10c-2.15-1.1-4,2.13-1.9,3.23Z"/><path class="cls-1" d="M645.37,463.37a41,41,0,0,1-5-16.31c-.25-3.17-.54-7.7,2.2-9.87,4.18-3.32,8.32.36,10.38,4.23a37.69,37.69,0,0,1,4,16.23c.11,3.3-.18,5.84-2.65,8.23-2,2-3.31,2.55-6,1.49a7.62,7.62,0,0,1-4.29-3.25c-1.5-1.88-4.14.79-2.65,2.66,2.22,2.79,5,5.76,8.95,5.34,3.51-.38,7.55-3.63,9.2-6.65,4-7.36-.06-20.65-4.09-27.27-3.88-6.37-12.75-9.33-17.22-1.78-4.88,8.25-.17,21.27,3.94,28.84,1.15,2.12,4.39.23,3.24-1.89Z"/><path class="cls-1" d="M638.78,450c1.36.89,3.5,2,3.78,3.72.17,1.09.31,4.48-.2,5.43l1.12-.86-.39.15,2.31,1.31a41.15,41.15,0,0,0-3.28-10.4c-1-2.19-4.25-.29-3.24,1.89a37.24,37.24,0,0,1,2.9,9.51,1.88,1.88,0,0,0,2.31,1.31c3-1.18,2.33-5.71,2.22-8.34-.15-3.46-3-5.22-5.64-7-2-1.32-3.91,1.93-1.89,3.24Z"/><path class="cls-1" d="M642,458.81l-.39,2a1.88,1.88,0,1,0,3.62,1l.39-2a1.88,1.88,0,0,0-3.62-1Z"/><path class="cls-1" d="M676.89,320c-4.36,5.32-8,10.71-9.66,17.47-1.85,7.5-4.1,14.87-6,22.37-3.76,15-6.39,30.23-11.93,44.7-.87,2.25,2.76,3.23,3.61,1,5.11-13.33,7.76-27.32,11.08-41.16,1.64-6.86,3.91-13.54,5.62-20.37,1-4,1.56-8.08,3.41-11.86a49.6,49.6,0,0,1,6.51-9.49c1.52-1.85-1.12-4.52-2.65-2.65Z"/><path class="cls-1" d="M676.61,322.34c4.33,6.36,4.55,13.7,5,21.13.45,7.21,1.93,14.13,3.46,21.17,3.45,15.76,6.95,31.54,6.73,47.76,0,2.42,3.72,2.42,3.75,0,.23-16.54-3.35-32.68-6.86-48.76a164.63,164.63,0,0,1-3.58-24.6c-.44-6.6-1.49-13-5.28-18.6-1.35-2-4.6-.11-3.23,1.9Z"/><path class="cls-1" d="M685.69,346.3a93.86,93.86,0,0,0,6.21-12.25c1.72-4.09,4.92-7.21,6.44-11.34.83-2.27-2.8-3.25-3.62-1-1.31,3.59-4.33,6.34-5.85,9.9a102,102,0,0,1-6.42,12.8c-1.26,2.07,2,3.95,3.24,1.89Z"/><path class="cls-1" d="M695.22,322.49c3.84,14.39,3.51,29.05,3.88,43.8.17,6.73,1.37,13.36,1.57,20.08.2,7,.14,14,.19,20.95,0,2.42,3.77,2.42,3.75,0-.06-7.29.07-14.62-.22-21.91-.28-7.06-1.47-14-1.58-21.08-.22-14.42-.23-28.8-4-42.84-.62-2.33-4.24-1.34-3.61,1Z"/><path class="cls-1" d="M649.06,405c-5.5,7.93-14.14,12.94-17.59,22.34-3.39,9.24-2,20.36-2.08,30,0,2.41,3.73,2.42,3.75,0,.09-9.23-1.4-20.28,2-29s12-13.87,17.21-21.44c1.38-2-1.87-3.86-3.24-1.89Z"/><path class="cls-1" d="M629.41,458.21a12.63,12.63,0,0,0,1,3.81c.85,1.93,1.5,2.37,1.2,4.71-.36,2.88-.5,1.3-1.12,3-1.22,3.29-.74,7-.76,10.49-.07,10-1.34,20.9.64,30.77.47,2.37,4.08,1.37,3.61-1-2.07-10.36-.55-22.12-.48-32.65,0-2.33-.24-4.3.92-6.26.57-1,1.35-1.51,1.65-2.69,1-3.86-2.43-6.55-2.87-10.16-.29-2.37-4-2.4-3.75,0Z"/><path class="cls-1" d="M696,408.61c5.19,1,8.92,4.23,12.83,7.56a63.09,63.09,0,0,0,10.5,7.22c4.87,2.7,8.55,6.38,12.88,9.77,3.84,3,8.35,4.15,12.58,6.45,4.42,2.41,8.07,6,12.2,8.79,4.68,3.21,9.77,5.74,14.15,9.39,8.39,7,14.6,16.1,20.68,25.06,1.35,2,4.6.11,3.24-1.9-5.95-8.75-12-17.7-20-24.74a90.3,90.3,0,0,0-12.64-8.79c-5-3.08-9.3-7.13-14.28-10.21s-10.51-4.32-15-8.19c-3.88-3.32-7.35-6.37-11.86-8.87-8.16-4.51-14.76-13.4-24.22-15.16-2.36-.44-3.37,3.17-1,3.62Z"/><path class="cls-1" d="M794.37,485c7.42-.37,15-1.29,22.47-1a34.24,34.24,0,0,1,11.63,2.72c5.62,2.29,9.41,5.33,6,11.82-6.17,11.84-20.33,19-31.12,25.92-2,1.3-.15,4.54,1.89,3.24,7.28-4.65,14.76-9.13,21.4-14.7,5.45-4.57,13.25-11.8,13-19.6-.2-7.59-9.11-10.39-15.22-12-9.59-2.56-20.36-.62-30.13-.13-2.4.13-2.42,3.88,0,3.75Z"/><path class="cls-1" d="M802.54,526.68c1.38,6.76,1.67,13.33,2.33,20.15.45,4.63,1.77,8.75,4.89,12.26,1.6,1.81,4.25-.85,2.65-2.65-4.11-4.62-3.81-10.69-4.13-16.47a95.73,95.73,0,0,0-2.13-14.28c-.48-2.36-4.1-1.36-3.61,1Z"/><path class="cls-1" d="M809.42,557.19a60.43,60.43,0,0,1,20.36,31.9l3.13-1.83c-5.27-4.3-8.48-10.46-14.09-14.41a1.89,1.89,0,0,0-2.82,1.62,95,95,0,0,1-.74,15.81l3.69-.5c-3.2-7.65-6.51-15.12-12-21.46-1.58-1.84-4.22.83-2.65,2.65,5,5.82,8.07,12.78,11,19.81a1.88,1.88,0,0,0,3.68-.5,95,95,0,0,0,.74-15.81l-2.83,1.62c5.32,3.73,8.33,9.74,13.34,13.82a1.89,1.89,0,0,0,3.13-1.82,63.8,63.8,0,0,0-21.32-33.56c-1.85-1.52-4.52,1.12-2.65,2.66Z"/><path class="cls-1" d="M806.74,570.67a22.42,22.42,0,0,0,4.9-9.12c.62-2.34-3-3.33-3.62-1a18.18,18.18,0,0,1-3.93,7.47c-1.58,1.81,1.06,4.47,2.65,2.65Z"/><path class="cls-1" d="M805,567.43c-4.2,3.12-8.44,6.17-13.81,6.73a119.75,119.75,0,0,1-12.28.15q-14.34,0-28.67-.21c-2.42,0-2.42,3.72,0,3.75q16.25.23,32.49.21c4,0,8.12.25,12-.7,4.57-1.12,8.43-3.93,12.15-6.69,1.91-1.42.05-4.68-1.89-3.24Z"/><path class="cls-1" d="M754.87,574.23c-12.39.23-24.78,0-37.15-.82-5.63-.37-11.25-1-16.89-1.09-6.94-.14-13.25-.45-19.74-3.16-2.22-.93-3.2,2.7-1,3.62,11.06,4.62,23.95,3.43,35.73,4.25,13,.91,26,1.2,39,1,2.41-.05,2.42-3.8,0-3.75Z"/><path class="cls-1" d="M640.9,554.48c2.91,1.31,5,4.36,7.76,6.06,3.53,2.14,7.31,4.07,11,5.92,7.31,3.67,15.45,3,22.27,7.94,2,1.43,3.82-1.83,1.89-3.23-6.93-5-14.85-4.33-22.27-7.94a122.46,122.46,0,0,1-11-5.93c-2.82-1.77-4.74-4.7-7.76-6.06-2.18-1-4.09,2.25-1.89,3.24Z"/><path class="cls-1" d="M651.89,550.46c5.53.78,9.76,4,14.33,6.94a157.05,157.05,0,0,0,13.83,7.85,1.89,1.89,0,0,0,2.28-3Q671,549.6,659.88,536.64c-1.57-1.84-4.21.82-2.65,2.65q11.06,13,22.44,25.67l2.28-3a159.48,159.48,0,0,1-15.32-8.82c-4.35-2.84-8.49-5.6-13.74-6.35-2.36-.33-3.38,3.28-1,3.62Z"/><path class="cls-1" d="M681,561.3a63.57,63.57,0,0,0,2.09-8c.39-2-2.31-3.39-3.43-1.45-2,3.46-1.91,7.33-1.6,11.19.2,2.39,4,2.41,3.75,0-.25-3.15-.54-6.45,1.09-9.3l-3.43-1.44a61.91,61.91,0,0,1-2.09,8c-.76,2.29,2.86,3.28,3.62,1Z"/><path class="cls-1" d="M676.21,557.62c-1.72-2-3.44-3.91-5.14-5.87s-3.7-4-4.33-6.74c-.54-2.35-4.15-1.36-3.61,1,.63,2.72,2.23,4.82,4,6.91,2.11,2.48,4.26,4.91,6.42,7.35,1.6,1.81,4.25-.85,2.65-2.65Z"/><path class="cls-1" d="M629.84,511.94a58.65,58.65,0,0,0,4.92,14.15c2.53,5,8.73,12.12,3.91,17.58-1.59,1.8,1.05,4.46,2.65,2.65,3.49-4,3.4-8.83,1.37-13.5-3.26-7.47-7.48-13.72-9.23-21.88-.51-2.36-4.12-1.36-3.62,1Z"/><path class="cls-1" d="M641.51,556.08a1.88,1.88,0,0,0,0-3.75,1.88,1.88,0,0,0,0,3.75Z"/><path class="cls-1" d="M641,552.44a9.49,9.49,0,0,0-5.72,5.78h3.61a133.93,133.93,0,0,0-8.21-20.14c-3.45-6.46-8.23-12.14-11.05-18.93-.91-2.2-4.54-1.23-3.62,1,2.51,6,6.33,11.14,9.66,16.7,4.21,7,7,14.67,9.61,22.37a1.89,1.89,0,0,0,3.61,0l3.1-3.16c2.2-.91,1.24-4.54-1-3.62Z"/><path class="cls-1" d="M631.76,539.37a167.76,167.76,0,0,1-3-24.26,1.88,1.88,0,0,0-3.75,0c-.77,11.23,2.91,26.95,14.34,31.77,2.22.93,3.19-2.69,1-3.62-9.63-4.06-12.2-19-11.58-28.15H625a176,176,0,0,0,3.18,25.26c.48,2.36,4.09,1.36,3.62-1Z"/><path class="cls-1" d="M94.62,583.31s114.38,1.36,165.1,1,56.51,1,59.24,1.36,53.78,1.37,62.3,1.37,23.82-8.17-7.15-8.17-194.39-1.37-194.39-1.37S87.13,576.84,94.62,583.31Z"/><path class="cls-1" d="M665.6,594.55s25.27-4.09,40.08-4.6,36.26-.77,43.15-.77,22.21,3.32,27.83,3.07,17.87-3.32,24.77-3.32,23.74,5.1,12.51,7.66-36.26,1.53-44.43,2-36-4.34-50.55-3.32S674,599.65,665.6,594.55Z"/></g></g></svg>